# xmcd
#
# Track frame offsets:
#	150
#	14553
#	27780
#	40325
#	52508
#	67020
#	81258
#	92838
#	106910
#	120348
#	130733
#	144353
#	156093
#	171218
#	184140
#
# Disc length: 2645 seconds
#
# Revision: 1
# Processed by: cddbd v1.5.2PL0 Copyright (c) Steve Scherf et al.
# Submitted via: EasyCDDAExtractor 11.1.0.1
#
DISCID=bc0a530f
DTITLE=Syngepigerne - Musik og sang med Bakkeklang vol. 1
DYEAR=2003
DGENRE=Visesang
TTITLE0=Send en hilsen
TTITLE1=Kærlighed med K
TTITLE2=Den da' da Dorthe drak dus
TTITLE3=Vis mig en vej
TTITLE4=Det pusler allevegne
TTITLE5=Mænd er pigers bedste legetøj
TTITLE6=Rosa Rosa Nina
TTITLE7=Der var engang
TTITLE8=Han kommer og banker
TTITLE9=En lille hvid sky, der græd
TTITLE10=Visen om 18 svaner
TTITLE11=København
TTITLE12=I min lille blomsterverden
TTITLE13=Kallemand
TTITLE14=Bare for at få et glimt af dig
EXTD=White Puma Records
EXTT0=Tove Pedersen
EXTT1=Ulla Larsen
EXTT2=Kirsten de Neergaard
EXTT3=Tove Pedersen
EXTT4=Ulla Larsen
EXTT5=Kirsten de Neergaard
EXTT6=Tove Pedersen
EXTT7=Ulla Larsen
EXTT8=Kirsten de Neergaard
EXTT9=Tove Pedersen
EXTT10=Ulla Larsen
EXTT11=Kirsten de Neergaard
EXTT12=Tove Pedersen
EXTT13=Ulla Larsen
EXTT14=Kirsten de Neergaard
PLAYORDER=
